# xmcd CD Database Entry
#
# Track frame offsets:
# 150
# 14172
# 19887
# 32877
# 45872
# 62892
# 69065
# 84877
# 102785
# 119285
# 132160
# 148295
# 175042
# 189840
# 211632
# 232732
# 248962
# 263572
# 276632
#
# Disc length: 3873 seconds
#
# Revision: 5
# Processed by: cddbd v1.4PL0 Copyright (c) Steve Scherf et al.
# Submitted via: tcd 2.0b
#
DISCID=fd0f1f13
DTITLE=Various Artist - Zydeco Volume 1: The Early Years 1949-62
DYEAR=1900
DGENRE=
TTITLE0=Allons A Lafayette - McZiel and Gernger
TTITLE1=Tap Dance - McZiel and Gernger
TTITLE2=French Waltz - McZiel and Gernger
TTITLE3=Rayne One Step and Zydeco Sont Pas Sale - Sidney Babineaux
TTITLE4=Zydeco Sont Pas Sale - Albert Chevalier
TTITLE5=Moman Couche' - Albert Chevalier
TTITLE6=Ma Petite Fille - Albert Chevalier
TTITLE7=Bernadette, Cher - Albert Chevalier
TTITLE8=You Havin' A Good Time - George Alberts
TTITLE9=King's Zydeco - Peter King and Lester Herbert
TTITLE10=Lafayette Zydeco - Peter King and Lester Herbert
TTITLE11=Jole Blonde - Willie Green
TTITLE12=Baby Please Don't Go - Willie Green
TTITLE13=Tell Me, Pretty Baby - Willie Green
TTITLE14=Announcement and Green's Zydeco - Willie Green
TTITLE15=They Call Me Good Rockin' - Herbert Sam
TTITLE16=Clifton's Blues - Clifton Chenier
TTITLE17=Louisiana Stomp - Clifton Chenier
TTITLE18=Bon Ton Roulet - Clarence Garlow
EXTD=
EXTT0=
EXTT1=
EXTT2=
EXTT3=
EXTT4=
EXTT5=
EXTT6=
EXTT7=
EXTT8=
EXTT9=
EXTT10=
EXTT11=
EXTT12=
EXTT13=
EXTT14=
EXTT15=
EXTT16=
EXTT17=
EXTT18=
PLAYORDER=
